<?xml version="1.0" encoding="utf-8"?>
<!-- Generator: Adobe Illustrator 18.0.0, SVG Export Plug-In . SVG Version: 6.00 Build 0)  -->
<!DOCTYPE svg PUBLIC "-//W3C//DTD SVG 1.1//EN" "http://www.w3.org/Graphics/SVG/1.1/DTD/svg11.dtd">
<svg version="1.1" id="Capa_1" xmlns="http://www.w3.org/2000/svg" xmlns:xlink="http://www.w3.org/1999/xlink" x="0px" y="0px"
	 viewBox="0 0 22.3 22.3" enable-background="new 0 0 22.3 22.3" xml:space="preserve">
<g id="Shape_2_">
	<g>
		<path fill="#302E2F" d="M11.2,0C5,0,0,5,0,11.2s5,11.2,11.2,11.2s11.2-5,11.2-11.2S17.4,0,11.2,0z M11.2,20.8
			c-5.4,0-9.7-4.3-9.7-9.7s4.3-9.7,9.7-9.7c5.4,0,9.7,4.3,9.7,9.7S16.5,20.8,11.2,20.8z M13,5.8c-0.1-0.1-0.3-0.2-0.5-0.2
			c-0.1,0-0.4,0.1-0.6,0.1l-4.8,4.8c-0.1,0.1-0.2,0.3-0.2,0.5c0,0.2,0.1,0.4,0.2,0.5l4.9,4.9c0.3,0.3,0.7,0.3,1,0
			c0.3-0.3,0.3-0.7,0-1l-4.3-4.3L13,6.8C13.3,6.6,13.3,6.1,13,5.8z"/>
	</g>
</g>
</svg>
